<mxfile host="65bd71144e">
    <diagram id="mSHDbhP4EA9RL5Qm9t1z" name="第 1 页">
        <mxGraphModel dx="1074" dy="713" grid="1" gridSize="10" guides="1" tooltips="1" connect="1" arrows="1" fold="1" page="0" pageScale="1" pageWidth="827" pageHeight="1169" background="none" math="1" shadow="0">
            <root>
                <mxCell id="0"/>
                <mxCell id="1" parent="0"/>
                <mxCell id="2" value="" style="endArrow=classic;html=1;entryX=1.05;entryY=1;entryDx=0;entryDy=0;entryPerimeter=0;rounded=0;sketch=1;" parent="1" target="4" edge="1">
                    <mxGeometry width="50" height="50" relative="1" as="geometry">
                        <mxPoint x="290" y="280" as="sourcePoint"/>
                        <mxPoint x="550" y="280" as="targetPoint"/>
                    </mxGeometry>
                </mxCell>
                <mxCell id="3" value="" style="endArrow=classic;html=1;rounded=0;sketch=1;" parent="1" edge="1">
                    <mxGeometry width="50" height="50" relative="1" as="geometry">
                        <mxPoint x="360" y="220" as="sourcePoint"/>
                        <mxPoint x="360" y="600" as="targetPoint"/>
                    </mxGeometry>
                </mxCell>
                <mxCell id="4" value="x" style="text;html=1;align=center;verticalAlign=middle;resizable=0;points=[];autosize=1;strokeColor=none;fillColor=none;rounded=0;sketch=1;" parent="1" vertex="1">
                    <mxGeometry x="670" y="260" width="20" height="20" as="geometry"/>
                </mxCell>
                <mxCell id="5" value="0" style="text;html=1;align=center;verticalAlign=middle;resizable=0;points=[];autosize=1;strokeColor=none;fillColor=none;rounded=0;sketch=1;" parent="1" vertex="1">
                    <mxGeometry x="340" y="280" width="20" height="20" as="geometry"/>
                </mxCell>
                <mxCell id="6" value="1" style="text;html=1;align=center;verticalAlign=middle;resizable=0;points=[];autosize=1;strokeColor=none;fillColor=none;rounded=0;sketch=1;" parent="1" vertex="1">
                    <mxGeometry x="390" y="280" width="20" height="20" as="geometry"/>
                </mxCell>
                <mxCell id="7" value="2" style="text;html=1;align=center;verticalAlign=middle;resizable=0;points=[];autosize=1;strokeColor=none;fillColor=none;rounded=0;sketch=1;" parent="1" vertex="1">
                    <mxGeometry x="430" y="280" width="20" height="20" as="geometry"/>
                </mxCell>
                <mxCell id="8" value="3" style="text;html=1;align=center;verticalAlign=middle;resizable=0;points=[];autosize=1;strokeColor=none;fillColor=none;rounded=0;sketch=1;" parent="1" vertex="1">
                    <mxGeometry x="470" y="280" width="20" height="20" as="geometry"/>
                </mxCell>
                <mxCell id="9" value="4" style="text;html=1;align=center;verticalAlign=middle;resizable=0;points=[];autosize=1;strokeColor=none;fillColor=none;rounded=0;sketch=1;" parent="1" vertex="1">
                    <mxGeometry x="510" y="280" width="20" height="20" as="geometry"/>
                </mxCell>
                <mxCell id="10" value="1" style="text;html=1;align=center;verticalAlign=middle;resizable=0;points=[];autosize=1;strokeColor=none;fillColor=none;rounded=0;sketch=1;" parent="1" vertex="1">
                    <mxGeometry x="340" y="310" width="20" height="20" as="geometry"/>
                </mxCell>
                <mxCell id="11" value="2" style="text;html=1;align=center;verticalAlign=middle;resizable=0;points=[];autosize=1;strokeColor=none;fillColor=none;rounded=0;sketch=1;" parent="1" vertex="1">
                    <mxGeometry x="340" y="350" width="20" height="20" as="geometry"/>
                </mxCell>
                <mxCell id="12" value="3" style="text;html=1;align=center;verticalAlign=middle;resizable=0;points=[];autosize=1;strokeColor=none;fillColor=none;rounded=0;sketch=1;" parent="1" vertex="1">
                    <mxGeometry x="340" y="390" width="20" height="20" as="geometry"/>
                </mxCell>
                <mxCell id="13" value="4" style="text;html=1;align=center;verticalAlign=middle;resizable=0;points=[];autosize=1;strokeColor=none;fillColor=none;rounded=0;sketch=1;" parent="1" vertex="1">
                    <mxGeometry x="340" y="430" width="20" height="20" as="geometry"/>
                </mxCell>
                <mxCell id="14" value="-1" style="text;html=1;align=center;verticalAlign=middle;resizable=0;points=[];autosize=1;strokeColor=none;fillColor=none;rounded=0;sketch=1;" parent="1" vertex="1">
                    <mxGeometry x="305" y="280" width="30" height="20" as="geometry"/>
                </mxCell>
                <mxCell id="15" value="-1" style="text;html=1;align=center;verticalAlign=middle;resizable=0;points=[];autosize=1;strokeColor=none;fillColor=none;rounded=0;sketch=1;" parent="1" vertex="1">
                    <mxGeometry x="335" y="230" width="30" height="20" as="geometry"/>
                </mxCell>
                <mxCell id="16" value="" style="ellipse;whiteSpace=wrap;html=1;aspect=fixed;fillColor=none;strokeColor=#00994D;strokeWidth=2;rounded=0;sketch=1;fontFamily=Comic Sans MS;" parent="1" vertex="1">
                    <mxGeometry x="460" y="380" width="120" height="120" as="geometry"/>
                </mxCell>
                <mxCell id="17" value="" style="ellipse;whiteSpace=wrap;html=1;aspect=fixed;fillColor=#CCFFFF;strokeColor=#000000;rounded=0;sketch=1;fontFamily=Comic Sans MS;" parent="1" vertex="1">
                    <mxGeometry x="435" y="355" width="10" height="10" as="geometry"/>
                </mxCell>
                <mxCell id="22" value="5" style="text;html=1;align=center;verticalAlign=middle;resizable=0;points=[];autosize=1;strokeColor=none;fillColor=none;rounded=0;sketch=1;" parent="1" vertex="1">
                    <mxGeometry x="550" y="280" width="20" height="20" as="geometry"/>
                </mxCell>
                <mxCell id="23" value="6" style="text;html=1;align=center;verticalAlign=middle;resizable=0;points=[];autosize=1;strokeColor=none;fillColor=none;rounded=0;sketch=1;" parent="1" vertex="1">
                    <mxGeometry x="590" y="280" width="20" height="20" as="geometry"/>
                </mxCell>
                <mxCell id="24" value="7" style="text;html=1;align=center;verticalAlign=middle;resizable=0;points=[];autosize=1;strokeColor=none;fillColor=none;rounded=0;sketch=1;" parent="1" vertex="1">
                    <mxGeometry x="630" y="280" width="20" height="20" as="geometry"/>
                </mxCell>
                <mxCell id="25" value="5" style="text;html=1;align=center;verticalAlign=middle;resizable=0;points=[];autosize=1;strokeColor=none;fillColor=none;rounded=0;sketch=1;" parent="1" vertex="1">
                    <mxGeometry x="340" y="470" width="20" height="20" as="geometry"/>
                </mxCell>
                <mxCell id="26" value="6" style="text;html=1;align=center;verticalAlign=middle;resizable=0;points=[];autosize=1;strokeColor=none;fillColor=none;rounded=0;sketch=1;" parent="1" vertex="1">
                    <mxGeometry x="340" y="510" width="20" height="20" as="geometry"/>
                </mxCell>
                <mxCell id="27" value="7" style="text;html=1;align=center;verticalAlign=middle;resizable=0;points=[];autosize=1;strokeColor=none;fillColor=none;rounded=0;sketch=1;" parent="1" vertex="1">
                    <mxGeometry x="340" y="550" width="20" height="20" as="geometry"/>
                </mxCell>
                <mxCell id="31" style="edgeStyle=none;html=1;exitX=0;exitY=0;exitDx=0;exitDy=0;entryX=1;entryY=1;entryDx=0;entryDy=0;rounded=0;sketch=1;fontFamily=Comic Sans MS;" parent="1" source="30" target="17" edge="1">
                    <mxGeometry relative="1" as="geometry"/>
                </mxCell>
                <mxCell id="33" style="edgeStyle=none;html=1;exitX=0.5;exitY=1;exitDx=0;exitDy=0;rounded=0;sketch=1;fontFamily=Comic Sans MS;" parent="1" source="30" target="16" edge="1">
                    <mxGeometry relative="1" as="geometry"/>
                </mxCell>
                <mxCell id="45" style="edgeStyle=none;html=1;exitX=1;exitY=0.5;exitDx=0;exitDy=0;entryX=0;entryY=0.5;entryDx=0;entryDy=0;rounded=0;sketch=1;fontFamily=Comic Sans MS;" parent="1" source="30" target="34" edge="1">
                    <mxGeometry relative="1" as="geometry"/>
                </mxCell>
                <mxCell id="30" value="" style="ellipse;whiteSpace=wrap;html=1;aspect=fixed;fillColor=#CCFFFF;rounded=0;sketch=1;fontFamily=Comic Sans MS;" parent="1" vertex="1">
                    <mxGeometry x="515" y="435" width="10" height="10" as="geometry"/>
                </mxCell>
                <mxCell id="32" value="" style="ellipse;whiteSpace=wrap;html=1;aspect=fixed;fillColor=#CCFFFF;rounded=0;sketch=1;fontFamily=Comic Sans MS;" parent="1" vertex="1">
                    <mxGeometry x="515" y="499" width="10" height="10" as="geometry"/>
                </mxCell>
                <mxCell id="34" value="" style="ellipse;whiteSpace=wrap;html=1;aspect=fixed;fillColor=#CCFFFF;rounded=0;sketch=1;fontFamily=Comic Sans MS;" parent="1" vertex="1">
                    <mxGeometry x="555" y="435" width="10" height="10" as="geometry"/>
                </mxCell>
                <mxCell id="42" value="Z(4, 4)" style="text;html=1;align=center;verticalAlign=middle;resizable=0;points=[];autosize=1;strokeColor=none;fillColor=none;rounded=0;sketch=1;fontFamily=Comic Sans MS;" parent="1" vertex="1">
                    <mxGeometry x="470" y="430" width="50" height="20" as="geometry"/>
                </mxCell>
                <mxCell id="47" value="A(2, 2)" style="text;html=1;align=center;verticalAlign=middle;resizable=0;points=[];autosize=1;strokeColor=none;fillColor=none;rounded=0;sketch=1;fontFamily=Comic Sans MS;" parent="1" vertex="1">
                    <mxGeometry x="400" y="335" width="50" height="20" as="geometry"/>
                </mxCell>
                <mxCell id="48" value="B(5, 4)" style="text;html=1;align=center;verticalAlign=middle;resizable=0;points=[];autosize=1;strokeColor=none;fillColor=none;rounded=0;sketch=1;fontFamily=Comic Sans MS;" parent="1" vertex="1">
                    <mxGeometry x="535" y="415" width="50" height="20" as="geometry"/>
                </mxCell>
                <mxCell id="49" value="C(4, 6)" style="text;html=1;align=center;verticalAlign=middle;resizable=0;points=[];autosize=1;strokeColor=none;fillColor=none;rounded=0;sketch=1;fontFamily=Comic Sans MS;" parent="1" vertex="1">
                    <mxGeometry x="495" y="510" width="50" height="20" as="geometry"/>
                </mxCell>
                <mxCell id="50" value="" style="endArrow=none;dashed=1;html=1;fontFamily=Comic Sans MS;" edge="1" parent="1">
                    <mxGeometry width="50" height="50" relative="1" as="geometry">
                        <mxPoint x="445" y="359.5" as="sourcePoint"/>
                        <mxPoint x="520" y="360" as="targetPoint"/>
                    </mxGeometry>
                </mxCell>
                <mxCell id="52" value="" style="endArrow=none;dashed=1;html=1;fontFamily=Comic Sans MS;" edge="1" parent="1">
                    <mxGeometry width="50" height="50" relative="1" as="geometry">
                        <mxPoint x="520" y="430" as="sourcePoint"/>
                        <mxPoint x="520" y="360" as="targetPoint"/>
                    </mxGeometry>
                </mxCell>
                <mxCell id="55" value="" style="endArrow=none;html=1;curved=1;endSize=6;sketch=1;fontFamily=Comic Sans MS;" edge="1" parent="1">
                    <mxGeometry width="50" height="50" relative="1" as="geometry">
                        <mxPoint x="455" y="375" as="sourcePoint"/>
                        <mxPoint x="460" y="359" as="targetPoint"/>
                        <Array as="points">
                            <mxPoint x="470" y="370"/>
                        </Array>
                    </mxGeometry>
                </mxCell>
                <mxCell id="57" value="dx" style="text;html=1;align=center;verticalAlign=middle;resizable=0;points=[];autosize=1;strokeColor=none;fillColor=none;sketch=0;glass=0;rounded=0;shadow=0;fontSize=12;fontFamily=Comic Sans MS;" vertex="1" parent="1">
                    <mxGeometry x="465" y="335" width="30" height="20" as="geometry"/>
                </mxCell>
                <mxCell id="58" value="dy" style="text;html=1;align=center;verticalAlign=middle;resizable=0;points=[];autosize=1;strokeColor=none;fillColor=none;fontFamily=Comic Sans MS;" vertex="1" parent="1">
                    <mxGeometry x="520" y="390" width="30" height="20" as="geometry"/>
                </mxCell>
                <mxCell id="62" value="angle" style="text;html=1;align=center;verticalAlign=middle;resizable=0;points=[];autosize=1;strokeColor=none;fillColor=none;fontSize=12;fontFamily=Comic Sans MS;" vertex="1" parent="1">
                    <mxGeometry x="460" y="360" width="40" height="20" as="geometry"/>
                </mxCell>
            </root>
        </mxGraphModel>
    </diagram>
</mxfile>